<?xml version="1.0" encoding="utf-8"?>
<!-- Generator: Adobe Illustrator 18.0.0, SVG Export Plug-In . SVG Version: 6.00 Build 0)  -->
<!DOCTYPE svg PUBLIC "-//W3C//DTD SVG 1.1//EN" "http://www.w3.org/Graphics/SVG/1.1/DTD/svg11.dtd">
<svg version="1.1" id="svg1936" xmlns:svg="http://www.w3.org/2000/svg"
	 xmlns="http://www.w3.org/2000/svg" xmlns:xlink="http://www.w3.org/1999/xlink" x="0px" y="0px" viewBox="0 84.5 216 47"
	 enable-background="new 0 84.5 216 47" xml:space="preserve">
<g id="layer1" transform="translate(151.616,-642.7961)">
	<g id="g1967" transform="translate(7.081691,7.081144)">
		<path id="path8" fill="#FFFFFF" d="M-74.1,755.1c-7.8,5.7-19.1,8.8-28.8,8.8c-13.6,0-25.9-5-35.1-13.4c-0.7-0.7-0.1-1.6,0.8-1
			c10,5.8,22.4,9.3,35.2,9.3c8.6,0,18.1-1.8,26.8-5.5C-73.9,752.7-72.8,754.1-74.1,755.1"/>
		<path id="path10" fill="#FFFFFF" d="M-70.8,751.4c-1-1.3-6.6-0.6-9.1-0.3c-0.8,0.1-0.9-0.6-0.2-1c4.4-3.1,11.7-2.2,12.6-1.2
			c0.8,1-0.2,8.4-4.4,11.9c-0.6,0.5-1.2,0.2-1-0.5C-71.9,757.9-69.8,752.7-70.8,751.4"/>
		<path id="path12" fill="#FFFFFF" d="M-79.7,727.9v-3c0-0.5,0.4-0.8,0.8-0.8h13.6c0.4,0,0.8,0.3,0.8,0.8v2.6c0,0.4-0.4,1-1,1.9
			l-7,10.1c2.6-0.1,5.4,0.3,7.8,1.7c0.5,0.3,0.7,0.8,0.7,1.2v3.3c0,0.4-0.5,1-1,0.7c-4.2-2.2-9.8-2.4-14.4,0c-0.5,0.3-1-0.3-1-0.7
			v-3.1c0-0.5,0-1.3,0.5-2.1l8.2-11.7h-7.1C-79.4,728.7-79.7,728.4-79.7,727.9"/>
		<path id="path14" fill="#FFFFFF" d="M-129.4,746.9h-4.1c-0.4,0-0.7-0.3-0.7-0.7v-21.3c0-0.4,0.4-0.8,0.8-0.8h3.8
			c0.4,0,0.7,0.3,0.8,0.7v2.8h0.1c1-2.7,2.9-3.9,5.4-3.9c2.6,0,4.2,1.2,5.4,3.9c1-2.7,3.3-3.9,5.7-3.9c1.7,0,3.6,0.7,4.8,2.3
			c1.3,1.8,1,4.4,1,6.7v13.4c0,0.4-0.4,0.8-0.8,0.8h-4.1c-0.4,0-0.8-0.4-0.8-0.8v-11.3c0-0.9,0.1-3.1-0.1-4
			c-0.3-1.4-1.2-1.8-2.4-1.8c-1,0-2,0.7-2.5,1.7c-0.4,1.1-0.4,2.9-0.4,4.1v11.3c0,0.4-0.4,0.8-0.8,0.8h-4.2c-0.4,0-0.8-0.4-0.8-0.8
			v-11.3c0-2.4,0.4-5.9-2.6-5.9c-3,0-2.9,3.4-2.9,5.9v11.3C-128.6,746.6-129,746.9-129.4,746.9"/>
		<path id="path16" fill="#FFFFFF" d="M-52.8,723.7c6.2,0,9.5,5.3,9.5,12c0,6.5-3.7,11.6-9.5,11.6c-6,0-9.3-5.3-9.3-11.9
			C-62.2,728.9-58.8,723.7-52.8,723.7 M-52.8,728.1c-3,0-3.2,4.2-3.2,6.8s0,8.2,3.2,8.2s3.4-4.5,3.4-7.2c0-1.8-0.1-3.9-0.6-5.6
			C-50.6,728.7-51.5,728.1-52.8,728.1"/>
		<path id="path18" fill="#FFFFFF" d="M-35.4,746.9h-4.1c-0.4,0-0.8-0.4-0.8-0.8v-21.3c0-0.4,0.4-0.7,0.8-0.7h3.9
			c0.4,0,0.7,0.3,0.7,0.6v3.2h0.1c1.2-2.9,2.8-4.3,5.6-4.3c1.9,0,3.7,0.7,4.8,2.5c1.1,1.7,1.1,4.6,1.1,6.6v13.4
			c0,0.4-0.4,0.7-0.8,0.7h-4.2c-0.4,0-0.7-0.3-0.7-0.7v-11.6c0-2.3,0.3-5.7-2.6-5.7c-1,0-1.9,0.7-2.4,1.7c-0.6,1.3-0.7,2.6-0.7,4
			v11.4C-34.6,746.6-34.9,746.9-35.4,746.9"/>
		<path id="path20" fill="#FFFFFF" d="M-20.7,745.2c0-1.1,0.9-1.9,2-1.9s2,0.9,2,1.9s-0.9,1.9-2,1.9
			C-19.7,747.2-20.7,746.3-20.7,745.2"/>
		<path id="path22" fill="#FFFFFF" d="M23.2,746.9c-0.4,0-0.8-0.4-0.8-0.8v-21.3c0-0.4,0.3-0.7,0.7-0.7h1.5c0.4,0,0.8,0.3,0.8,0.7
			v3.1c1.1-2.5,3.1-4.4,5.6-4.4h0.2h0.2c2.7,0,4.7,2,5.4,4.9c1.2-2.9,3.3-4.9,6.2-4.9h0.2h0.2c2,0,3.9,1.3,5,3.3
			c1,1.9,0.9,4.4,0.9,6.5v12.8c0,0.4-0.3,0.7-0.7,0.8h-1.8c-0.4,0-0.7-0.3-0.8-0.7v-12.9c0-1.5,0.1-3.1-0.5-4.5s-1.8-2.3-3.1-2.4
			c-1.4,0.1-2.8,1.1-3.6,2.6c-1.1,1.8-1.1,3.5-1.1,5.6v11.6c0,0.4-0.4,0.6-0.7,0.6h-2c-0.4,0-0.8-0.4-0.8-0.8v-13.6
			c0-1.2-0.1-2.7-0.6-3.8c-0.7-1.3-1.9-2.1-3.1-2.2c-1.3,0.1-2.6,1.1-3.4,2.2c-1,1.5-1.2,3.3-1.2,5.2V746c0,0.4-0.3,0.7-0.8,0.8
			L23.2,746.9"/>
		<path id="path24" fill="#FFFFFF" d="M10.8,747.4c-5.9,0-8.5-6-8.5-12c0-6.3,3.1-11.8,9-11.8h0.2h0.2c5.8,0,8.6,5.8,8.6,11.8
			c0,6.4-3.2,11.9-9.1,11.9H11L10.8,747.4 M11.2,744.5c1.9-0.1,3.5-1.3,4.4-3.3c0.8-1.8,1-3.8,1-5.8c0-2.1-0.2-4.4-1.2-6.2
			c-0.9-1.6-2.4-2.6-4.1-2.7c-1.8,0.1-3.5,1.3-4.3,3.2c-0.7,1.6-1,3.8-1,5.7c0,2.1,0.3,4.4,1.1,6.2C7.9,743.3,9.5,744.4,11.2,744.5"
			/>
		<path id="path26" fill="#FFFFFF" d="M-7.6,744.4c2.6-0.1,4-2.2,4.6-4.9c0.1-0.3,0.4-0.6,0.8-0.6h1.7c0.4,0,0.8,0.3,0.8,0.7
			c-0.8,4.7-3.6,7.8-7.6,7.8h-0.2h-0.2c-5.8,0-8.4-5.9-8.4-11.8c0-5.9,2.6-11.9,8.4-11.9h0.2h0.2c4,0,7,3.1,7.6,7.8
			c0,0.4-0.3,0.6-0.7,0.7h-1.8c-0.4,0-0.6-0.4-0.7-0.8c-0.4-2.6-1.9-4.7-4.4-4.8c-4,0.1-5.1,5-5.1,8.8
			C-12.5,739-11.6,744.2-7.6,744.4"/>
		<path fill="#FFFFFF" d="M-83.2,743c-0.8-1-1.6-1.9-1.6-3.8v-6.4c0-2.7,0.2-5.2-1.8-7.1c-1.6-1.5-4.2-2.1-6.2-2.1
			c-3.9,0-8.3,1.5-9.3,6.3c-0.1,0.5,0.3,0.8,0.6,0.9l4,0.4c0.4,0,0.6-0.4,0.7-0.8c0.3-1.7,1.8-2.5,3.3-2.5c0.9,0,1.8,0.3,2.3,1.1
			c0.6,0.8,0.5,2,0.5,3v0.5c-2.4,0.3-5.5,0.4-7.8,1.4c-2.6,1.1-4.4,3.4-4.4,6.8c0,4.3,2.7,6.4,6.2,6.4c2.9,0,4.6-0.7,6.8-3
			c0.8,1.1,1,1.6,2.4,2.8c0.3,0.2,0.7,0.2,1-0.1l0,0c0.8-0.7,2.3-2,3.2-2.8C-82.9,743.9-83,743.4-83.2,743z M-91.4,741.2
			c-0.7,1.2-1.7,1.9-2.9,1.9c-1.6,0-2.5-1.2-2.5-3c0-3.5,3.2-4.2,6.2-4.2v0.9l0,0C-90.6,738.4-90.5,739.7-91.4,741.2z"/>
		<path fill="#FFFFFF" d="M-137.5,743c-0.8-1-1.6-1.9-1.6-3.8v-6.4c0-2.7,0.2-5.2-1.8-7.1c-1.6-1.5-4.2-2.1-6.2-2.1
			c-3.9,0-8.3,1.5-9.3,6.3c-0.1,0.5,0.3,0.8,0.6,0.9l4,0.4c0.4,0,0.6-0.4,0.7-0.8c0.3-1.7,1.8-2.5,3.3-2.5c0.8,0,1.8,0.3,2.3,1.1
			c0.6,0.8,0.5,2,0.5,3v0.5c-2.4,0.3-5.5,0.4-7.8,1.4c-2.6,1.1-4.4,3.4-4.4,6.8c0,4.3,2.7,6.4,6.2,6.4c3,0,4.6-0.7,6.8-3
			c0.8,1.1,1,1.6,2.4,2.8c0.3,0.2,0.7,0.2,1-0.1l0,0l0,0l0,0l0,0c0.8-0.7,2.3-2,3.2-2.8C-137.2,743.9-137.3,743.4-137.5,743z
			 M-145.7,741.2c-0.7,1.2-1.7,1.9-2.9,1.9c-1.6,0-2.5-1.2-2.5-3c0-3.5,3.2-4.2,6.2-4.2v0.9C-144.9,738.4-144.9,739.7-145.7,741.2z"
			/>
		<path id="path32" fill="#FFFFFF" d="M53.5,724.4c1,0,1.8,0.8,1.8,1.8s-0.8,1.8-1.8,1.8s-1.8-0.8-1.8-1.8S52.6,724.4,53.5,724.4
			 M53.5,724.1c-1.2,0-2.2,0.9-2.2,2.2c0,1.2,1,2.2,2.2,2.2s2.2-1,2.2-2.2C55.7,725,54.7,724.1,53.5,724.1 M52.7,727.5h0.5v-1h0.4
			c0.2,0,0.2,0.1,0.2,0.2c0,0,0.1,0.6,0.1,0.8h0.5c-0.1-0.1-0.1-0.4-0.1-0.6c0-0.3-0.1-0.5-0.4-0.6c0.2-0.1,0.5-0.2,0.5-0.6
			c0-0.6-0.6-0.6-0.9-0.6h-0.8V727.5 M53.2,725.4h0.4c0.1,0,0.4,0,0.4,0.3c0,0.1-0.1,0.3-0.4,0.3h-0.4V725.4"/>
	</g>
</g>
</svg>
