<?xml version="1.0" encoding="utf-8"?>
<!-- Generator: Adobe Illustrator 18.0.0, SVG Export Plug-In . SVG Version: 6.00 Build 0)  -->
<!DOCTYPE svg PUBLIC "-//W3C//DTD SVG 1.1//EN" "http://www.w3.org/Graphics/SVG/1.1/DTD/svg11.dtd">
<svg version="1.1" id="Layer_1" xmlns="http://www.w3.org/2000/svg" xmlns:xlink="http://www.w3.org/1999/xlink" x="0px" y="0px"
	 viewBox="29.3 7.7 157.3 200.7" enable-background="new 29.3 7.7 157.3 200.7" xml:space="preserve">
<g>
	<g>
		<path fill="#FFFFFF" d="M108.4,135.8c-26.8,0-48.6-21.7-48.6-48.5c0-26.9,21.8-48.6,48.6-48.6S157,60.4,157,87.3
			C157,114.1,135.2,135.8,108.4,135.8 M108.4,14.5c-40.2,0-72.8,32.6-72.8,72.8c0,40.2,32.6,72.8,72.8,72.8s72.9-32.6,72.9-72.8
			C181.3,47.1,148.6,14.5,108.4,14.5z"/>
		<path fill="#FFFFFF" d="M108.4,62.4c-13.8,0-24.9,11.1-24.9,24.9c0,13.8,11.2,24.9,24.9,24.9s25-11.2,25-24.9
			C133.4,73.5,122.2,62.4,108.4,62.4"/>
		<polyline fill="#FFFFFF" points="42.6,179 34.5,179 34.5,174.1 56.5,174.1 56.5,179 48.5,179 48.5,200.9 42.6,200.9 42.6,179 		
			"/>
		<path fill="#FFFFFF" d="M54,200.9h5.9l2.1-6h10l2,6h6.1l-10-26.8h-6L54,200.9 M67,180.7L67,180.7l3.5,9.8h-6.9L67,180.7z"/>
		<path fill="#FFFFFF" d="M82.5,200.9h5.9v-10.5h5.9c3,0,4.1,1.2,4.5,4.1c0.3,2.1,0.2,4.7,0.9,6.4h5.9c-1.1-1.5-1-4.7-1.1-6.4
			c-0.2-2.7-1-5.5-3.9-6.2v-0.1c3-1.2,4.3-3.6,4.3-6.7c0-4.1-3-7.4-7.8-7.4H82.5L82.5,200.9 M88.4,178.7h6.4c2.6,0,4.1,1.1,4.1,3.7
			c0,2.7-1.4,3.8-4.1,3.8h-6.4V178.7z"/>
		<path fill="#FFFFFF" d="M128.2,197.9c-2.1,2.7-4.8,3.7-7.3,3.7c-8.3,0-13.2-6.2-13.2-13.9c0-7.9,4.9-14.1,13.2-14.1
			c5.5,0,10.6,3.4,11.3,9.4h-5.6c-0.7-3-2.9-4.5-5.7-4.5c-5.3,0-7.3,4.5-7.3,9.2c0,4.5,2,9,7.3,9c3.8,0,6-2.1,6.4-5.8h-5.9v-4.4
			h11.3v14.5h-3.8L128.2,197.9"/>
		<polyline fill="#FFFFFF" points="136.6,174.1 156.6,174.1 156.6,179 142.4,179 142.4,184.8 155.4,184.8 155.4,189.4 142.4,189.4 
			142.4,195.9 156.9,195.9 156.9,200.9 136.6,200.9 136.6,174.1 		"/>
		<polyline fill="#FFFFFF" points="167.5,179 159.5,179 159.5,174.1 181.5,174.1 181.5,179 173.4,179 173.4,200.9 167.5,200.9 
			167.5,179 		"/>
	</g>
</g>
</svg>
