<?xml version="1.0" encoding="utf-8"?>
<!-- Generator: Adobe Illustrator 18.0.0, SVG Export Plug-In . SVG Version: 6.00 Build 0)  -->
<!DOCTYPE svg PUBLIC "-//W3C//DTD SVG 1.1//EN" "http://www.w3.org/Graphics/SVG/1.1/DTD/svg11.dtd">
<svg version="1.1" id="Layer_1" xmlns="http://www.w3.org/2000/svg" xmlns:xlink="http://www.w3.org/1999/xlink" x="0px" y="0px"
	 viewBox="0 0 612 81" style="enable-background:new 0 0 612 81;" xml:space="preserve">
<path style="fill-rule:evenodd;clip-rule:evenodd;fill:#FFFFFF;" d="M200.8,61c0,0.2,0,0.3,0,0.4C200.8,61.3,200.8,61.2,200.8,61
	 M223.2,58.8c0,0.2,0,0.3,0,0.4C223.2,59.1,223.2,58.9,223.2,58.8 M324.1,44.9c4.2,0,8.4,0,12.5,0c0,1.6,0,3.3,0,4.9
	c-3.9,0-7.8,0-11.7,0c-0.6,0-0.9,0.3-0.9-0.4c-0.2,0-0.3,0-0.4,0C323.8,47.9,323.9,46.4,324.1,44.9 M575.9,34.5
	c-1.2,3.4-4.9,9.4-4.9,13c1.4,0,9.4,0.3,9.4-0.4c0.2,0,0.3,0,0.4,0C580.1,42.9,578.5,37.8,575.9,34.5 M205.3,34.1
	c-1.2,3.3-4.9,10.1-4.9,13.5c1.4,0,9.4,0.3,9.4-0.4c0.2,0,0.3,0,0.4,0C209.4,42.6,207.7,37.8,205.3,34.1 M482.7,24.7
	c0,0.2,0,0.3,0,0.4c-9.9,4.6-8.5,36.9,4.4,35.6c11.7-1.2,9.6-29.7,2.1-35C487.5,24.6,485.1,24.7,482.7,24.7 M395.8,24.7
	c0,0.2,0,0.3,0,0.4c-9.9,4.6-8.5,36.9,4.4,35.6c11.6-1.2,9.6-29.7,2.1-35C400.6,24.6,398.1,24.7,395.8,24.7 M182,23.3L182,23.3
	 M508.3,22.4c3.6,0,13.3-0.7,15.8,0.6c1.1,0.5,7.9,20.2,7.9,22.3c0.2,0,0.3,0,0.4,0c0-0.2,0-0.3,0-0.4c0.2,0,0.3,0,0.4,0
	c0.5-3.2,5.3-20.1,7.1-21.6c1.9-1.6,10.8-0.9,14-0.9c0.6,0,0.9-0.2,0.9,0.4c0.2,0,0.3,0,0.4,0c-0.2,0.7-0.3,1.5-0.4,2.2
	c-0.9,0.2-4,0.3-4,1.3c-1.2,2.7-0.7,30.1,0.6,32.4c0.6,1.1,3.1,1.2,4.4,1.2c0,0.7,0.3,2.2-0.4,2.2c0,0.2,0,0.3,0,0.4
	c-5.5,0-11,0-16.6,0c-0.6,0-1.3,0.3-1.3-0.4c-0.2,0-0.3,0-0.4,0c0-0.7,0-1.5,0-2.2c1.5-0.2,3-0.3,4.5-0.4c0.9-9.7,0.4-20.4,0.4-30.5
	c-0.2,0-0.3,0-0.4,0c0,0.2,0,0.3,0,0.4c-0.8,2.2-1.6,4.4-2.4,6.6c-2,5.9-3.7,12-5.6,18c-0.8,2.7-1.5,5.4-2.3,8.1
	c-1.4,0-2-0.2-2.7-1.3c-1-2.7-1.9-5.3-2.9-8c-1.8-5.4-3.6-10.8-5.4-16.2c-0.8-2.4-1.7-4.8-2.5-7.3c-0.2,0-0.3,0-0.4,0
	c0,6.1,0,12.3,0,18.4c0,2.8-0.3,5.9,0.4,8.4c0.4,1.5,1.2,2.5,2.5,3.4c0.6,0.4,2.6,1.3,2,2.3c-0.9,1.7-10.9,1.1-13.4,1.1
	c-0.6,0-0.4,0.1-0.4-0.4c-0.2,0-0.3,0-0.4,0c0-0.4,0-0.9,0-1.3c1.6-1.1,3.7-1.9,4.6-3.8c1.2-2.7,0.8-6.4,0.8-9.7
	c0-6.7,0-13.5,0-20.2c-0.2,0-0.3,0-0.4,0c0,0.6,0.3,1.3-0.4,1.3c0.2-1.1,0.3-2.1,0.4-3.1c-0.9-0.1-4.5-0.2-4.5-0.9
	c-0.2,0-0.3,0-0.4,0C508,24.2,508.1,23.3,508.3,22.4 M422.7,22.4c3.3,0,10.5-0.8,12.9,0.5c1,0.5,18.9,24.1,18.9,24.1
	c0.2,0,0.3,0,0.4,0c0-0.6-0.2-0.4,0.4-0.4c0-5.1,0.8-13.4-0.4-17.8c-0.8-3.1-5.5-3.8-5.5-5.9c0.2,0,0.3,0,0.4,0c0-0.2,0-0.3,0-0.4
	c4.5,0,9,0,13.4,0c0.6,0,0.4-0.2,0.4,0.4c0.2,0,0.3,0,0.4,0c-1,3.2-4.2,3-5.1,6.8c-1,4-0.3,9.5-0.3,13.8c0,6.6-0.4,12.9-0.4,19.3
	c-1.7-0.1-3.1-0.2-4.3-1.1c-2.1-1.7-21.7-27.7-21.7-28.5c-0.3,0-0.6,0-0.9,0c0,5.5,0,11.1,0,16.6c0,2.4-0.3,5.1,0.6,7.1
	c0.9,1.9,2.4,2.6,4.1,3.5c0.6,0.3,2.2,2.4,1.1,2.4c0,0.2,0,0.3,0,0.4c-4.5-0.7-9.5-0.4-14.3-0.4c-0.6,0-0.4,0.1-0.4-0.4
	c-0.2,0-0.3,0-0.4,0c0-0.6,0-1.2,0-1.8c1.8-0.6,3.7-1.5,4.6-3.3c1.8-3.7,1.1-12.5,1.3-17.3c0.1-3.3,1-7.4,0-10.7
	c-0.8-2.7-5.9-4.5-5.9-5c-0.3-0.4-0.8-0.9,0-0.9C422.4,23,422.5,22.7,422.7,22.4 M164.5,22.4c6.1,0,12.3,0,18.4,0
	c-0.1,0.8,0.1,2.7-0.9,2.7c-1.3,0.2-2.7,0.3-4,0.4c0,11.4,0,22.7,0,34.1c0.9,0,4.5-0.4,4.5,0.4c0.2,0,0.3,0,0.4,0c0,0.9,0,1.8,0,2.7
	c-6.1,0-12.2,0-18.4,0c0-0.8-0.3-2.7,0.4-2.7c0-0.2,0-0.3,0-0.4c0.9-0.1,2.9,0,3.4-0.9c1.4-2.4,0.6-7.3,0.6-10.4
	c0-7.6,0-15.3,0-22.9c-1.5,0-3,0-4.5,0C164.5,24.5,164.5,23.5,164.5,22.4 M124.7,22.4c6.7,0,13.4,0,20.2,0c0,0.7,0.3,2.7-0.4,2.7
	c0,0.2,0,0.3,0,0.4c-1.8,0-3.6,0-5.4,0c0,4.7-0.8,31.6,0.7,33.4c1.1,1.3,4.3,1.2,6,1.2c2-1,3.9-0.9,5.6-2.5c3-2.7,4.1-9.7,7.8-9.7
	c-0.2,4.8-0.4,9.3-0.4,13.9c0,0.6,0.1,0.4-0.4,0.4c0,0.2,0,0.3,0,0.4c-10.5,0-20.8-0.4-30.9-0.4c-0.8,0-3.1,0.3-3.1-0.4
	c-0.2,0-0.3,0-0.4,0c0-0.6-0.3-1.3,0.4-1.3c1.4-1.3,3.9-0.6,5-2.5c1.3-2.4,1.5-27.5,0.5-30.6c-0.9-2.7-5.4-1.7-5.4-4.7
	C124.4,22.7,124.5,22.6,124.7,22.4 M85.2,22.4c6.7,0,13.4,0,20.2,0c0,0.7,0.3,2.7-0.4,2.7c0,0.2,0,0.3,0,0.4c-1.8,0-3.6,0-5.4,0
	c0,10.5,0,21,0.1,31.4c0,0.8-0.2,2.7,0.8,2.7c1.5,0.5,3.2,0.4,4.9,0.4c10.3-0.2,9.4-12.1,14.4-12.1c-0.2,4.8-0.4,9.3-0.4,13.9
	c0,0.6,0.1,0.4-0.4,0.4c0,0.2,0,0.3,0,0.4c-7.9,0-15.8,0-23.8,0c-3,0-6.7,0.5-9.3-0.4c-0.4-0.1-2.2-1.4-1-1.4c0-0.3,0-0.6,0-0.9
	c0.9-0.3,4.9-0.3,4.9-1.3c1.9-4.5,0.9-16.2,0.9-22c0-2.9,0.5-6.7-0.4-9.2c-1-2.7-5.5-1.6-5.5-4.7C84.9,22.7,85.1,22.6,85.2,22.4
	 M61.5,22.4c6.1,0,12.3,0,18.4,0c-0.1,0.8,0.1,2.7-0.9,2.7c-1.3,0.2-2.7,0.3-4,0.4c0,11.4,0,22.7,0,34.1c0.9,0,4.5-0.4,4.5,0.4
	c0.2,0,0.3,0,0.4,0c0,0.9,0,1.8,0,2.7c-6.1,0-12.2,0-18.4,0c0-0.8-0.3-2.7,0.4-2.7c0-0.2,0-0.3,0-0.4c0.9-0.1,2.9,0,3.4-0.9
	c1.1-2,0.6-5.6,0.6-8.1c0-8.4,0-16.7,0-25.1c-1.5,0-3,0-4.5,0C61.5,24.5,61.5,23.5,61.5,22.4 M2.3,22.4c5.4,0,10.8,0,16.1,0
	c0,0.7,0.3,2.2-0.4,2.2c0,0.2,0,0.3,0,0.4c-0.8,0-2.7-0.3-2.7,0.4c-0.2,0-0.3,0-0.4,0c0.4,6,3.2,12,5.1,17.4
	c0.7,2.1,1.4,4.2,2.1,6.4c0.2,0,0.3,0,0.4,0c0-0.2,0-0.3,0-0.4c1.6-3,4.5-11.4,4.7-14.8c0.1-2-0.7-4.5-1.4-6.1
	c-0.6-1.3-3.8-3.3-3.8-4.3c0-0.2,0.1-0.3,0.1-0.5c0.4-1.2,12.1-0.8,14.4-0.8c0.6,0,0.4-0.2,0.4,0.4c0.2,0,0.3,0,0.4,0
	c0,0.6,0,1.2,0,1.8c-1.1,0.2-2.5,0.4-3,1.6c-1,2.8,4.1,15.4,5.3,18.6c0.4,1.2,0.8,2.4,1.3,3.6c0.6,0,0.4-0.2,0.4,0.4
	c0.2,0,0.3,0,0.4,0c0-0.2,0-0.3,0-0.4c1.3-3,6.3-17.8,4.8-21.1c-0.6-1.5-1.7-2.1-3-2.8c-0.4-0.2-2.5-1.7-1.4-1.7c0-0.2,0-0.3,0-0.4
	c4.6,0,9.3,0,13.9,0c-0.8,2.9-3.9,3.7-5.1,6.4c-1.3,2.7-1.9,5.6-2.8,8.5c-1.6,5.5-3.2,11-4.9,16.5c-1,3-1.9,6-2.9,9.1
	c-1.1-0.2-2.5-0.3-3.3-1.1c-1.3-1.5-7.5-20-7.5-22.2c-0.3,0-0.6,0-0.9,0c-1.4,4.4-2.8,8.7-4.3,13.1c-0.9,2.9-1.4,7-3.3,9.5
	c-0.5,0.7-1.6,0.8-2.4,0.5c-1.7-0.6-2.2-4-2.7-5.5c-2.3-7.1-4.6-14.1-6.9-21.2c-0.9-2.8-1.5-6.2-3.1-8.7c-0.7-1.1-2.3-2.1-3.6-2.1
	C2.3,24.2,2.3,23.3,2.3,22.4 M577.3,22c1.4,0.1,2.6,0.1,3.6,0.9c1.7,1.4,2.1,4.2,2.9,6.1c2.6,6.3,5.2,12.7,7.7,19
	c1.2,3.2,2.3,7.3,4.5,10c0.8,1,2.8,2.1,4.1,2.1c-0.1,0.8,0,2.2-0.9,2.2c-4.3,1.3-11.7,0.4-16.6,0.4c-0.6,0-0.4,0.1-0.4-0.4
	c-0.2,0-0.3,0-0.4,0c0.1-0.8,0-2.2,0.9-2.2c0.6-0.3,1.3-0.6,1.9-0.9c1.1-2-0.1-7.1-2.1-8c-1.7-0.8-11.2-0.9-12.6,0.2
	c-0.8,0.7-1.3,1.9-1.5,2.9c-1.5,5.2,4.5,5.9,4.5,6.3c0.2,0,0.3,0,0.4,0c0,0.6,0.3,1.8-0.4,1.8c0,0.2,0,0.3,0,0.4
	c-4.6,0-9.3,0-13.9,0c-0.6,0-0.9,0.3-0.9-0.4c-0.2,0-0.3,0-0.4,0c0-0.6,0-1.2,0-1.8c1.4-0.8,2.8-1.4,4-2.7c1.9-2.2,2.6-5,3.8-7.5
	c2.4-6.3,4.9-12.6,7.4-19C573.9,28,574.9,24.7,577.3,22 M247.5,22c0.8,0.3,2,0.7,2.5,1.5c1.1,1.8,1.5,4.1,2.1,6.1
	c1.1,3.4,2.2,6.9,3.2,10.3c0.7,1.8,1.4,3.6,2,5.5c0.2,0,0.3,0,0.4,0c0.7-3.1,5.9-21.5,7.9-22.4c3-1.4,10.7-0.5,14.5-0.5
	c0,0.7,0.3,2.7-0.4,2.7c0,0.2,0,0.3,0,0.4c-1.5,0.1-3.4,0.1-4,1.6c-1,2.3-0.1,5.7-0.1,8.3c0,5.1,0,10.2,0,15.3
	c0,2.4-0.4,5.4,0.4,7.5c0.7,1.8,4.5,1.1,4.5,2c0.2,0,0.3,0,0.4,0c-0.1,0.8,0,2.2-0.9,2.2c-4.9,1.3-11.7,0.4-17,0.4
	c-0.6,0-0.4,0.1-0.4-0.4c-0.2,0-0.3,0-0.4,0c0-0.7,0-1.5,0-2.2c0.2,0,0.3,0,0.4,0c0-0.2,0-0.3,0-0.4c1.3,0,2.7,0,4,0
	c0.9-9.7,0.4-20.4,0.4-30.5c-0.3,0-0.6,0-0.9,0c-3.2,10.3-6.3,20.6-9.5,30.9c-0.3,0.8-0.7,1.6-1.7,1.6c-0.9,0-1.2-0.6-1.6-1.2
	c-3.6-7.4-5.3-15.8-8-23.6c-0.8-2.6-1.7-5.1-2.5-7.7c-0.3,0-0.6,0-0.9,0c0,6.9,0.1,14.2,0.4,20.6c0.1,2.2,0.2,4.4,0.3,6.6
	c0.7,3,5.1,3.4,5.1,6.4c-4.9,0-9.9,0-14.8,0c0-0.6,0-1.2,0-1.8c1.7-0.6,3.7-1.6,4.4-3.4c1-2.5,0.5-6.3,0.5-9.2
	c0-7.8-0.4-15.4-0.4-22.9c-1.8-0.2-3.3-0.9-4.9-0.9c0-0.4,0-0.9,0-1.3C236.8,21.4,243,23.3,247.5,22 M206.7,22
	c1.3,0.1,2.6,0.1,3.6,0.9c1.7,1.5,2.2,4.3,3,6.3c2,4.9,10.2,28.2,13.6,30c1.2,0.6,2.3,1,2.3,2.7c0,0.6,0,0.5-0.5,0.5
	c-4.8,1.3-11.3,0.4-16.6,0.4c-0.6,0-0.4,0.1-0.4-0.4c-0.2,0-0.3,0-0.4,0c0.1-0.8,0-2.2,0.9-2.2c0.6-0.3,1.3-0.6,1.9-0.9
	c1.1-2-0.1-7.1-2.1-8c-1.7-0.8-11.2-0.9-12.6,0.2c-1,0.8-1.3,2.1-1.6,3.3c-1.3,4.8,4.6,5.5,4.6,6c0.2,0,0.3,0,0.4,0
	c0,0.6,0.3,1.8-0.4,1.8c0,0.2,0,0.3,0,0.4c-4.6,0-9.3,0-13.9,0c-0.6,0-0.9,0.3-0.9-0.4c-0.2,0-0.3,0-0.4,0c0-0.6,0-1.2,0-1.8
	c1.4-0.8,2.6-1.3,3.8-2.5c2-2.1,2.7-4.9,3.8-7.4c2.5-6.3,4.9-12.6,7.4-18.9C203.3,28.3,204.2,24.8,206.7,22 M483.6,21.5
	c3.6,0,7.3,0.5,10.2,2c13,6.8,15.4,27.1,3.2,36.1c-2.7,1.9-5.5,3.5-9,3.9c-18.7,2.1-27.7-19.8-18.1-33.7
	C473.4,24.9,478.3,23.2,483.6,21.5 M396.7,21.5c4,0,8.2,0.6,11.2,2.6c11.9,7.7,14.5,26.7,2.2,35.5c-2.7,1.9-5.5,3.5-9,3.9
	c-18.5,2.1-28.3-20.3-17.9-33.9C386.9,24.7,391.3,23.3,396.7,21.5 M356.8,21.5c2.4,0,4.8,0,6.8,0.8c1.6,0.6,3.6,2.3,5.3,2.3
	c0.4-0.5,4-4.1,4-2.2c0.2,0,0.3,0,0.4,0c0,4.5,0,9,0,13.5c0,0.6,0.1,0.4-0.4,0.4c0,0.2,0,0.3,0,0.4c-0.4-0.1-0.8-0.2-1.3-0.3
	c-0.6-0.2-1-0.5-1.3-1.1c-0.7-1.4-1.4-2.8-2.1-4.3c-2.5-4.2-7.5-8.6-12.8-6.1c-1.9,0.9-3.5,2.4-3.8,4.6c-1,7.7,12.9,8,17.5,10.5
	c2.6,1.4,4.5,4.1,5.1,7c0.6,2.6,0.3,5.7-0.5,8.1c-2,5.7-8.7,9.8-15.1,8.3c-3.1-0.7-6.9-4.2-9.6-2.1c-0.6,0.4-3.5,2.2-3.5,1
	c-0.2,0-0.3,0-0.4,0c0-4.6,0-9.3,0-13.9c0-0.6-0.2-0.9,0.4-0.9c0-0.2,0-0.3,0-0.4c3.4,0.6,3.6,3.6,5.2,6.1c2.6,4.1,7.4,8.6,12.7,7.2
	c2.5-0.6,4.1-2.4,4.9-4.8c0.5-1.5,0-3.2-0.6-4.4c-0.9-1.6-2.7-2.5-4.3-3.2c-4.9-2-10.5-1.8-14.5-5.8c-6.7-6.7-2.3-20.3,7.8-20.3
	C356.8,21.8,356.8,21.7,356.8,21.5 M300.3,21.5c2.4,0,4.6,0.1,6.6,0.8c1.7,0.6,3.6,2.4,5.5,2.4c0.4-0.5,4-4.1,4-2.2
	c0.2,0,0.3,0,0.4,0c0,4.5,0,9,0,13.5c0,0.6,0.1,0.4-0.4,0.4c0,0.2,0,0.3,0,0.4c-0.4-0.1-0.8-0.2-1.3-0.3c-0.6-0.2-1-0.5-1.3-1.1
	c-0.7-1.4-1.4-2.8-2.1-4.3c-2.5-4.2-7.5-8.6-12.8-6.1c-1.9,0.9-3.5,2.4-3.8,4.6c-1.1,8,13.1,7.8,17.7,10.6c2.1,1.3,3.7,3.3,4.6,5.6
	c0.9,2.6,0.8,6,0,8.7c-2.1,6.9-9.5,10.4-16.7,8.5c-2.5-0.7-5.4-3.8-7.9-1.9c-0.5,0.4-3.8,2.5-3.8,1.2c-0.2,0-0.3,0-0.4,0
	c0-4.6,0-9.3,0-13.9c0-0.6-0.3-0.9,0.4-0.9c0-0.2,0-0.3,0-0.4c3.2,0.5,3.6,3.3,5,5.8c2.4,4.3,7.4,8.8,12.9,7.5
	c2.3-0.6,4-2.2,4.8-4.4c0.5-1.4,0.4-2.9-0.2-4.3c-0.8-1.7-2.4-2.7-4-3.5c-5-2.3-10.5-2.1-14.8-5.8c-7.5-6.4-2.3-20.5,7.5-20.5
	C300.3,21.8,300.3,21.7,300.3,21.5"/>
</svg>
