<?xml version="1.0" encoding="utf-8"?>
<!-- Generator: Adobe Illustrator 18.0.0, SVG Export Plug-In . SVG Version: 6.00 Build 0)  -->
<!DOCTYPE svg PUBLIC "-//W3C//DTD SVG 1.1//EN" "http://www.w3.org/Graphics/SVG/1.1/DTD/svg11.dtd">
<svg version="1.1" id="Layer_1" xmlns="http://www.w3.org/2000/svg" xmlns:xlink="http://www.w3.org/1999/xlink" x="0px" y="0px"
	 viewBox="0 0 300 98.5" style="enable-background:new 0 0 300 98.5;" xml:space="preserve">
<path id="Bed_Bath__x26__Beyond" style="fill:#FFFFFF;" d="M4.7,59.2h15.8c7.2,0,14.6,1.6,14.6,9.4c0,3-1.6,5.9-4.9,6.8v0.3
	c4,1.3,6.6,4,6.6,8c0,7-7.1,9.3-13.6,9.3H4.7V59.2 M18.5,72.2c2,0,4.2-0.2,4.2-2.5c0-2.5-2.5-2.3-4.5-2.3h-0.9v4.9H18.5z M17.2,85
	h1.5c2.2,0,5.4,0,5.4-2.8c0-2.8-3.4-2.8-5.6-2.8h-1.3V85z M38.9,59.2v33.9h27.8v-9.2H53.8v-3.3h11.4v-8.8H53.8v-3.2h12.5v-9.2
	L38.9,59.2 M85.4,59.2H66.6l15.9,19.3v14.6h16.3V78.5l15.6-19.3H95.8l-3.3,5.7c-0.6,1-1,2.1-1.5,3.2h-0.5L85.4,59.2 M161.5,76.2
	c0,10.9-12.2,17.4-27.2,17.4c-15,0-27.2-6.5-27.2-17.4c0-10.7,12.2-17.6,27.2-17.6C149.2,58.7,161.5,65.6,161.5,76.2 M125.1,76.4
	c0,3.9,3.8,6.5,9.2,6.5c5.4,0,9.2-2.6,9.2-6.5c0-3.6-3.5-6.6-9.2-6.6S125.1,72.8,125.1,76.4z M219.3,59.2h28.2
	c25.6,0,45.2,5,45.2,17.4c0,10.1-16,16.4-38.3,16.4h-35L219.3,59.2 M247,82.9h1.7c9.2,0,16.3-1.9,16.3-6.3c0-4.8-6.2-6.8-16.3-6.8
	H247V82.9z M286.7,59.6c0-2.5,2-4.5,4.5-4.5c2.5,0,4.5,2,4.5,4.5c0,2.5-2,4.5-4.5,4.5C288.7,64.1,286.7,62.1,286.7,59.6 M295,59.6
	c0-2.1-1.8-3.8-3.8-3.8c-2.1,0-3.8,1.7-3.8,3.8c0,2.1,1.8,3.8,3.8,3.8C293.3,63.4,295,61.7,295,59.6z M293.4,62h-0.8l-1.5-2.3h-0.8
	V62h-0.7v-4.9h2.2c0.9,0,1.8,0.2,1.8,1.3c0,1-0.7,1.3-1.5,1.4L293.4,62z M291,59c0.6,0,1.7,0.1,1.7-0.7c0-0.5-0.7-0.6-1.2-0.6h-1.3
	V59L291,59L291,59z M182,59.2h-18.3v33.9h18.2V75.9l16.2,17.2h18.2V59.2h-18.2v17.5L182,59.2 M4.6,4.7h5.5c8.4,0,16.4,2.2,16.4,12.3
	c0,3.3-1.8,7.1-4.8,8.5v0.1c5.3,1,9,6.1,9,11.4c0,9-7.7,12.5-15.6,12.5H4.6V4.7 M10.2,24.6h1.4c5.3,0,9.6-1.1,9.6-7.5
	c0-6.3-4.3-7.4-9.5-7.4h-1.5C10.2,9.7,10.2,24.6,10.2,24.6z M10.2,44.6h4.3c5.2,0,10.6-1.5,10.6-7.9c0-6.3-6.4-7.6-11.4-7.6h-3.4
	C10.2,29,10.2,44.6,10.2,44.6z M33.9,4.7v44.8H58v-5.1H39.5V27.5h18v-5.1h-18V9.8H58V4.7H33.9 M63.2,4.7h9.3
	c13.7,0,25.2,7.3,25.2,22.2c0,15.3-11.2,22.6-25.3,22.6h-9.1L63.2,4.7 M68.8,44.4h2c11.4,0,21.3-4.3,21.3-17.3
	c0-13.1-9.9-17.3-21.3-17.3h-2C68.8,9.8,68.8,44.4,68.8,44.4z M113.4,4.7h5.5c8.5,0,16.4,2.2,16.4,12.3c0,3.3-1.8,7.1-4.8,8.5v0.1
	c5.3,1,9,6.1,9,11.4c0,9-7.7,12.5-15.6,12.5h-10.5V4.7 M119,24.6h1.4c5.3,0,9.6-1.1,9.6-7.5c0-6.3-4.3-7.4-9.5-7.4H119L119,24.6
	L119,24.6z M119,44.6h4.3c5.2,0,10.6-1.5,10.6-7.9c0-6.3-6.4-7.6-11.4-7.6H119C119,29,119,44.6,119,44.6z M150.2,38.3l-5.1,11.2h-6
	l21.4-46.7l21.4,46.7h-6l-5.1-11.2L150.2,38.3 M160.5,15.1l-8,18.1h16L160.5,15.1z M191.8,49.6V9.8h10.6V4.7h-26.9v5.1h10.6v39.7
	H191.8 M232.4,22.8h-21.3V4.7h-5.6v44.8h5.6V28h21.3v21.5h5.6V4.7h-5.6V22.8 M279.8,43.5c-3.4,4-8.1,7-13.4,7
	c-7.5,0-13.7-5.5-13.7-13.2c0-5.7,3.6-8.8,7.8-11.9l2.8-2c-2.5-2.7-4.9-6-4.9-9.8c0-6.2,4.5-9.8,10.3-9.8c5.5,0,10.3,3.4,10.3,9.3
	c0,5.1-4.4,8.4-8.2,11.2l9.4,11.3l5.2-6.1l3.6,3.7l-5.5,6.4l8,9.9h-6.9L279.8,43.5 M266,27.8c-3.1,2.1-8.2,5.2-8.2,9.4
	c0,4.3,4,8.3,8.3,8.3c4.2,0,7.5-3.2,10.3-6l-9.9-12.1L266,27.8z M268.4,19.9c2.3-1.8,5.4-3.6,5.4-6.9c0-3.1-2.3-4.9-5.2-4.9
	c-2.7,0-5,1.9-5,4.8c0,2.3,1.4,3.9,2.7,5.6l1.5,1.9L268.4,19.9z"/>
<rect y="0" style="fill:none;" width="300" height="124.7"/>
</svg>
